<?xml version="1.0" encoding="UTF-8"?>
<svg width="127px" height="201px" viewBox="0 0 127 201" version="1.1" xmlns="http://www.w3.org/2000/svg" xmlns:xlink="http://www.w3.org/1999/xlink">
    <!-- Generator: Sketch 55 (78076) - https://sketchapp.com -->
    <title>Group 3</title>
    <desc>Created with Sketch.</desc>
    <defs>
        <path d="M17.112,37.993 C12.817,44.316 9.295,51.14 6.642,58.336 L6.642,58.336 L6.466,58.817 L6.366,59.093 C6.113,59.798 5.868,60.505 5.632,61.217 L5.632,61.217 C0.615,76.326 -0.618,92.943 2.794,109.884 L2.794,109.884 C8.935,140.343 28.763,165.383 54.93,179.996 L54.93,179.996 C59.171,182.363 63.292,184.253 67.276,185.708 L67.276,185.708 L67.424,185.763 C74.377,188.285 80.893,189.462 86.849,189.487 L86.849,189.487 C45.204,158.274 23.125,108.546 28.919,59.373 L28.919,59.373 C29.042,58.32 29.179,57.268 29.329,56.218 L29.329,56.218 C29.41,55.62 29.967,55.203 30.605,55.271 L30.605,55.271 C31.25,55.34 31.743,55.898 31.712,56.518 L31.712,56.518 C28.141,117.065 64.168,173.819 120.62,200.286 L120.62,200.286 L126.219,190.235 L126.556,189.631 C121.025,187.275 115.653,184.625 110.439,181.682 L110.439,181.682 C110.439,181.68 110.439,181.68 110.441,181.68 L110.441,181.68 C114.631,178.281 117.952,173.89 120.249,168.743 L120.249,168.743 C120.275,168.682 120.302,168.623 120.328,168.564 L120.328,168.564 C120.358,168.495 120.389,168.424 120.417,168.355 L120.417,168.355 C120.427,168.337 120.436,168.317 120.443,168.298 L120.443,168.298 C120.454,168.274 120.464,168.25 120.474,168.226 L120.474,168.226 C127.677,151.42 124.111,126.792 104.607,102.331 L104.607,102.331 C83.218,75.505 55.573,55.121 58.528,24.115 L58.528,24.115 C59.209,16.959 61.521,9.239 65.916,0.741 L65.916,0.741 C45.394,7.946 28.526,21.194 17.112,37.993 L17.112,37.993 Z" id="path-1"></path>
    </defs>
    <g id="Page-1" stroke="none" stroke-width="1" fill="none" fill-rule="evenodd">
        <g id="Group-3">
            <mask id="mask-2" fill="white">
                <use xlink:href="#path-1"></use>
            </mask>
            <g id="Clip-2"></g>
            <polygon id="Fill-1" fill="#090707" mask="url(#mask-2)" points="-36.1021 -157.8047 326.4039 -25.8637 189.0729 351.4503 -173.4341 219.5093"></polygon>
        </g>
    </g>
</svg>