<?xml version="1.0" encoding="UTF-8"?>
<svg width="949px" height="256px" viewBox="0 0 949 256" version="1.1" xmlns="http://www.w3.org/2000/svg" xmlns:xlink="http://www.w3.org/1999/xlink">
    <!-- Generator: Sketch 55 (78076) - https://sketchapp.com -->
    <title>Artboard</title>
    <desc>Created with Sketch.</desc>
    <defs>
        <path d="M13.9570315,32.8565086 C10.2664267,38.4334361 7.24004485,44.4522489 4.96037675,50.7991681 L4.96037675,50.7991681 L4.80914358,51.2234133 L4.72321565,51.4668471 C4.50581798,52.0886617 4.29529454,52.7122403 4.09250461,53.340229 L4.09250461,53.340229 C-0.218499858,66.6664662 -1.27799129,81.3227693 1.65386983,96.2648425 L1.65386983,96.2648425 C6.93070428,123.12988 23.9684951,145.215325 46.4532577,158.104087 L46.4532577,158.104087 C50.0974614,160.191796 53.6385516,161.858789 57.0619205,163.142108 L57.0619205,163.142108 L57.1890938,163.190619 C63.1636631,165.415039 68.7627273,166.453161 73.8805951,166.475211 L73.8805951,166.475211 C38.0959068,138.94514 19.1238782,95.0847177 24.1025427,51.7138089 L24.1025427,51.7138089 C24.2082341,50.785056 24.3259553,49.8571851 24.4548472,48.9310782 L24.4548472,48.9310782 C24.5244489,48.4036383 25.0030674,48.0358415 25.5512877,48.095818 L25.5512877,48.095818 C26.1055228,48.1566764 26.5291476,48.6488361 26.5025099,49.1956802 L26.5025099,49.1956802 C23.4340234,102.598532 54.3912803,152.655932 102.899318,176 L102.899318,176 L107.710423,167.134952 L108,166.60222 C103.247326,164.524213 98.6312773,162.186895 94.1509948,159.59115 L94.1509948,159.59115 C94.1509948,159.589386 94.1509948,159.589386 94.1527134,159.589386 L94.1527134,159.589386 C97.7530938,156.591446 100.606761,152.718555 102.580525,148.178867 L102.580525,148.178867 C102.602866,148.125065 102.626067,148.073026 102.648408,148.020988 L102.648408,148.020988 C102.674187,147.960129 102.700824,147.897507 102.724884,147.836648 L102.724884,147.836648 C102.733477,147.820772 102.74121,147.803132 102.747225,147.786374 L102.747225,147.786374 C102.756677,147.765206 102.76527,147.744038 102.773863,147.72287 L102.773863,147.72287 C108.963252,132.899867 105.899062,111.17781 89.1396777,89.6030469 L89.1396777,89.6030469 C70.7605518,65.9423388 47.0057743,47.963517 49.5449448,20.6160214 L49.5449448,20.6160214 C50.130114,14.3043825 52.1167679,7.49529179 55.8933006,0 L55.8933006,0 C38.2591699,6.3548573 23.7648459,18.0396803 13.9570315,32.8565086 L13.9570315,32.8565086 Z" id="path-1"></path>
        <path d="M266.489578,1.34486894 C262.534798,2.21325284 259.239148,3.33955418 256.602627,4.727484 L256.602627,4.727484 C255.974373,5.07632198 255.376995,5.46598142 254.811834,5.90017337 L254.811834,5.90017337 C254.248016,6.33436533 253.83992,6.98565325 253.588886,7.85218163 L253.588886,7.85218163 C251.2034,13.407612 248.56688,19.7831827 245.677984,26.9863158 L245.677984,26.9863158 C242.790431,34.1875934 239.872002,41.56329 236.921354,49.1134056 L236.921354,49.1134056 C233.970707,56.6616656 231.02006,64.0800392 228.069413,71.3703818 L228.069413,71.3703818 C225.120108,78.6570134 222.325182,85.3387451 219.688662,91.4137214 L219.688662,91.4137214 C217.052142,97.4886976 214.823719,102.044002 213.003392,105.079635 L213.003392,105.079635 C211.181724,108.117123 209.26877,110.501467 207.259162,112.238235 L207.259162,112.238235 C206.003996,113.279183 204.496454,113.973148 202.739221,114.321986 L202.739221,114.321986 C200.981989,114.668968 198.972381,114.843387 196.711739,114.843387 L196.711739,114.843387 C195.707606,114.843387 195.206882,115.362933 195.206882,116.40388 L195.206882,116.40388 C195.206882,116.925282 195.393479,117.487505 195.7707,118.096116 L195.7707,118.096116 C196.147921,118.702871 196.586894,119.094386 197.08896,119.268805 L197.08896,119.268805 C198.721347,118.572985 200.604768,117.921697 202.739221,117.314941 L202.739221,117.314941 C204.873675,116.708186 207.636383,116.144107 211.026002,115.622706 L211.026002,115.622706 C214.415622,115.101304 218.589217,114.668968 223.549473,114.321986 L223.549473,114.321986 C228.508386,113.973148 234.629837,113.800584 241.912486,113.800584 L241.912486,113.800584 C244.045597,113.800584 246.306238,113.843261 248.691725,113.930471 L248.691725,113.930471 C251.077212,114.01768 253.525792,114.192099 256.037467,114.451872 L256.037467,114.451872 C258.547799,114.711645 260.99638,115.101304 263.381867,115.622706 L263.381867,115.622706 C265.766011,116.144107 267.901807,116.925282 269.785228,117.964374 L269.785228,117.964374 C270.536985,118.313212 271.008176,118.919967 271.197457,119.786495 L271.197457,119.786495 C271.385397,120.654879 271.480709,121.523263 271.480709,122.391647 L271.480709,122.391647 C271.480709,123.085612 271.605554,123.432594 271.855245,123.432594 L271.855245,123.432594 C272.359996,122.042809 272.892938,120.090801 273.458099,117.57657 L273.458099,117.57657 C274.023259,115.058627 274.305168,113.366392 274.305168,112.499864 L274.305168,112.499864 C274.305168,110.764951 273.301035,109.54773 271.291427,108.85562 L271.291427,108.85562 C270.789361,108.681201 270.036261,108.551315 269.032128,108.464105 L269.032128,108.464105 C268.026653,108.378751 266.960768,108.291542 265.829105,108.204332 L265.829105,108.204332 C264.700127,108.117123 263.569806,108.074446 262.439485,108.074446 L262.439485,108.074446 L259.990905,108.074446 C258.484705,108.074446 255.848185,108.247009 252.081345,108.593992 L252.081345,108.593992 L239.368593,109.764826 C234.660713,110.200873 229.857521,110.677742 224.961702,111.199143 L224.961702,111.199143 C220.065883,111.718689 215.858728,112.238235 212.344262,112.759637 L212.344262,112.759637 C211.213942,112.759637 210.711875,112.499864 210.836721,111.978462 L210.836721,111.978462 C210.962909,111.457061 211.401881,110.935659 212.156323,110.417969 L212.156323,110.417969 C215.5446,107.812817 218.778499,104.558233 221.853992,100.654217 L221.853992,100.654217 C224.929484,96.7502002 227.974101,91.3283674 230.987842,84.3850072 L230.987842,84.3850072 C232.746417,80.2212178 234.597619,75.7957998 236.544133,71.1087534 L236.544133,71.1087534 C238.490648,66.4235624 240.404944,61.7810485 242.288364,57.1812116 L242.288364,57.1812116 C244.171785,52.5832301 245.961235,48.2450217 247.655374,44.1665862 L247.655374,44.1665862 C249.350855,40.0881507 250.826179,36.5737936 252.081345,33.623515 L252.081345,33.623515 C253.462699,30.1536904 255.031992,26.5521238 256.789224,22.8206708 L256.789224,22.8206708 C258.547799,19.0892178 260.24328,15.6639257 261.875668,12.5392281 L261.875668,12.5392281 C263.255679,10.1084954 264.573939,7.85218163 265.829105,5.77028689 L265.829105,5.77028689 C267.085614,3.68839216 268.90594,2.64558927 271.291427,2.64558927 L271.291427,2.64558927 C272.672781,2.64558927 273.833977,2.73465428 274.776359,2.90536223 L274.776359,2.90536223 C275.717398,3.07978122 276.564467,3.33955418 277.317567,3.68839216 L277.317567,3.68839216 C277.694788,3.33955418 277.914945,2.73465428 277.978039,1.86627038 L277.978039,1.86627038 C278.039791,0.997886481 277.757882,0.391131063 277.129627,0.0441486068 L277.129627,0.0441486068 C273.991041,0.0441486068 270.444358,0.478340557 266.489578,1.34486894 L266.489578,1.34486894 Z M728.27794,1.08509598 C727.210713,1.43207843 726.080393,1.82173787 724.886978,2.25592982 L724.886978,2.25592982 C723.694906,2.68826625 722.532367,3.1224582 721.403389,3.55665015 L721.403389,3.55665015 C720.273068,3.99084211 719.519968,4.29514757 719.14409,4.46771104 L719.14409,4.46771104 C717.511703,5.33609494 716.222976,6.42157482 715.281937,7.72229515 L715.281937,7.72229515 C714.340898,9.02301548 713.432077,10.6298968 712.551447,12.5392281 L712.551447,12.5392281 C711.422469,15.1425243 710.041115,18.6123488 708.408728,22.9505573 L708.408728,22.9505573 C706.776341,27.2887657 705.019108,31.8886027 703.135688,36.7482126 L703.135688,36.7482126 C701.252268,41.6078225 699.337971,46.4655769 697.390115,51.3251868 L697.390115,51.3251868 C695.444943,56.1847967 693.593741,60.4357957 691.835166,64.0800392 L691.835166,64.0800392 C688.821425,70.3275789 685.337835,76.4470877 681.381713,82.432999 L681.381713,82.432999 C677.428275,88.4207657 673.096274,93.7553891 668.388394,98.4424355 L668.388394,98.4424355 C663.679172,103.127626 658.751135,106.859079 653.604283,109.634939 L653.604283,109.634939 C648.456088,112.412654 643.246142,113.800584 637.973102,113.800584 L637.973102,113.800584 C632.951095,113.800584 629.184254,112.152881 626.67258,108.85562 L626.67258,108.85562 C624.160905,105.556504 622.905739,101.132941 622.905739,95.5793664 L622.905739,95.5793664 C622.905739,88.9848442 624.475032,81.8689205 627.614961,74.2315955 L627.614961,74.2315955 C629.749415,68.8524396 632.071808,63.2561878 634.583482,57.44284 L634.583482,57.44284 C637.093814,51.6294923 639.636365,45.903354 642.211133,40.2607141 L642.211133,40.2607141 C644.784559,34.6217853 647.390204,29.15542 650.026724,23.8616182 L650.026724,23.8616182 C652.661901,18.5696718 655.235328,13.7527389 657.747002,9.41453044 L657.747002,9.41453044 C658.751135,7.85218163 659.819704,6.85576677 660.948683,6.42157482 L660.948683,6.42157482 C662.079003,5.98738287 663.147572,5.59586791 664.151705,5.24888545 L664.151705,5.24888545 C664.903463,4.90190299 665.280684,4.46771104 665.280684,3.94816512 L665.280684,3.94816512 C665.280684,3.25420021 664.966557,2.90536223 664.338302,2.90536223 L664.338302,2.90536223 C663.460357,2.90536223 662.519318,2.99257172 661.513843,3.16699071 L661.513843,3.16699071 C660.50971,3.33955418 659.348514,3.55665015 658.030254,3.81827864 L658.030254,3.81827864 C656.711994,4.0780516 655.048731,4.33968008 653.039122,4.59945304 L653.039122,4.59945304 C651.029514,4.85922601 648.519182,4.98911249 645.506783,4.98911249 L645.506783,4.98911249 C642.366855,4.98911249 639.385332,4.85922601 636.55953,4.59945304 L636.55953,4.59945304 C633.735071,4.33968008 631.694587,4.20793808 630.43942,4.20793808 L630.43942,4.20793808 C629.435288,4.20793808 628.964097,4.727484 629.027191,5.77028689 L629.027191,5.77028689 C629.088942,6.81123426 629.623227,7.33078019 630.62736,7.33078019 L630.62736,7.33078019 C631.255614,7.33078019 631.946962,7.37531269 632.700062,7.46252219 L632.700062,7.46252219 C633.451819,7.54787616 634.269355,7.59240867 635.1473,7.59240867 L635.1473,7.59240867 C636.905875,7.59240867 638.569138,7.54787616 640.138431,7.46252219 L640.138431,7.46252219 C641.707725,7.37531269 642.932015,7.33078019 643.811302,7.33078019 L643.811302,7.33078019 C645.694723,7.33078019 646.635762,8.11381011 646.635762,9.67430341 L646.635762,9.67430341 C646.635762,10.3682683 646.384728,11.4092157 645.882662,12.799001 L645.882662,12.799001 C643.874396,17.8311744 641.550661,23.2975397 638.914141,29.198097 L638.914141,29.198097 C636.278963,35.1005098 633.578007,41.0864211 630.816642,47.1595418 L630.816642,47.1595418 C628.053934,53.2345181 625.355662,59.1777523 622.7178,64.9929556 L622.7178,64.9929556 C620.08128,70.8044479 617.820638,76.1409267 615.93856,81.0005366 L615.93856,81.0005366 C613.426886,87.4224954 612.17172,93.2358431 612.17172,98.4424355 L612.17172,98.4424355 C612.17172,102.261098 612.766413,105.556504 613.96117,108.334219 L613.96117,108.334219 C615.153242,111.111934 616.722536,113.366392 618.66905,115.101304 L618.66905,115.101304 C620.615564,116.838072 622.780894,118.096116 625.16638,118.87729 L625.16638,118.87729 C627.551867,119.658464 629.937354,120.048124 632.322841,120.048124 L632.322841,120.048124 C635.210394,120.048124 638.663108,119.441368 642.680982,118.226002 L642.680982,118.226002 C646.698856,117.012491 651.029514,114.928741 655.675642,111.978462 L655.675642,111.978462 C660.320428,109.028184 665.154496,105.036958 670.177845,100.004784 L670.177845,100.004784 C675.199852,94.9707554 680.158765,88.6378617 685.054584,81.0005366 L685.054584,81.0005366 C685.180772,80.6554097 685.30696,80.5255232 685.431805,80.6108772 L685.431805,80.6108772 C685.557993,80.6980867 685.619744,80.9133271 685.619744,81.2603096 L685.619744,81.2603096 C685.619744,81.6091476 685.243866,82.6927719 684.490766,84.5167492 L684.490766,84.5167492 C683.736324,86.3370155 682.889255,88.5079752 681.946873,91.0240619 L681.946873,91.0240619 C681.005834,93.5401486 680.127889,96.2733313 679.311696,99.2236099 L679.311696,99.2236099 C678.495502,102.172033 678.087405,105.036958 678.087405,107.812817 L678.087405,107.812817 C678.087405,116.663653 682.230125,121.089071 690.516906,121.089071 L690.516906,121.089071 C694.53478,121.089071 698.458684,120.26522 702.288619,118.617517 L702.288619,118.617517 C706.117211,116.967959 709.853176,115.01595 713.492486,112.759637 L713.492486,112.759637 C714.122083,112.412654 714.373116,111.891253 714.246928,111.199143 L714.246928,111.199143 C714.122083,110.501467 713.746204,110.156341 713.116608,110.156341 L713.116608,110.156341 C712.991762,110.156341 712.394384,110.547856 711.328499,111.327174 L711.328499,111.327174 C710.25993,112.108349 708.94167,112.934056 707.372377,113.800584 L707.372377,113.800584 C705.804426,114.668968 704.139821,115.448287 702.381246,116.144107 L702.381246,116.144107 C700.625356,116.838072 698.866781,117.185055 697.108206,117.185055 L697.108206,117.185055 C694.221995,117.185055 692.149293,116.099575 690.894127,113.930471 L690.894127,113.930471 C689.638961,111.761366 689.010706,108.85562 689.010706,105.209521 L689.010706,105.209521 C689.010706,102.435517 689.324833,99.3961734 689.951745,96.0989123 L689.951745,96.0989123 C690.58,92.8016512 691.363975,89.5043901 692.306356,86.207129 L692.306356,86.207129 C693.247395,82.9117234 694.252871,79.6998163 695.320097,76.5751187 L695.320097,76.5751187 C696.387324,73.4522766 697.360581,70.7617709 698.238526,68.5054572 L698.238526,68.5054572 C699.997101,63.4732838 702.005367,58.2666914 704.264666,52.8875356 L704.264666,52.8875356 C706.523965,47.5083798 708.878576,42.1273684 711.328499,36.7482126 L711.328499,36.7482126 C713.775738,31.3672012 716.318288,26.0752549 718.954808,20.8686625 L718.954808,20.8686625 C721.591328,15.6639257 724.227848,10.8043158 726.865711,6.29168834 L726.865711,6.29168834 C727.493965,5.42330444 728.151752,4.727484 728.841758,4.20793808 L728.841758,4.20793808 C729.534449,3.68839216 730.192236,3.33955418 730.819148,3.16699071 L730.819148,3.16699071 C731.447402,3.16699071 731.699778,2.73465428 731.57359,1.86627038 L731.57359,1.86627038 C731.447402,0.997886481 731.071524,0.56369453 730.444612,0.56369453 L730.444612,0.56369453 C730.067391,0.56369453 729.343825,0.736257998 728.27794,1.08509598 L728.27794,1.08509598 Z M545.125713,5.50865841 C538.345131,8.63335604 532.255898,13.5783199 526.85667,20.3472611 L526.85667,20.3472611 C524.095305,23.8189412 521.270845,28.1571496 518.383292,33.363742 L518.383292,33.363742 C515.494396,38.5703344 512.92097,44.1220537 510.661671,50.0244665 L510.661671,50.0244665 C508.40103,55.9250237 506.548485,61.9554675 505.10538,68.1157977 L505.10538,68.1157977 C503.660932,74.276128 502.94005,80.1340083 502.94005,85.6857276 L502.94005,85.6857276 C502.94005,92.2821053 503.848871,97.7484706 505.67054,102.084824 L505.67054,102.084824 C507.489524,106.426743 509.939447,109.896568 513.01494,112.499864 L513.01494,112.499864 C516.090432,115.101304 519.732428,116.925282 523.938241,117.964374 L523.938241,117.964374 C528.145397,119.007176 532.696213,119.528578 537.592032,119.528578 L537.592032,119.528578 C545.752625,119.528578 553.601776,117.097845 561.132773,112.238235 L561.132773,112.238235 C568.667797,107.378625 575.289972,100.958522 581.003327,92.9760702 L581.003327,92.9760702 C586.71534,84.9917626 591.32925,75.8830093 594.845058,65.642388 L594.845058,65.642388 C598.360865,55.4036223 600.181192,44.9032281 600.306037,34.1449164 L600.306037,34.1449164 C600.432225,27.5503942 599.428092,22.1248504 597.292296,17.8738514 L597.292296,17.8738514 C595.159185,13.6228524 592.428695,10.2383818 589.100827,7.72229515 L589.100827,7.72229515 C585.774301,5.20620846 582.069212,3.42676367 577.989586,2.38581631 L577.989586,2.38581631 C573.908619,1.34486894 569.922963,0.823467492 566.031277,0.823467492 L566.031277,0.823467492 C558.873474,0.823467492 551.906295,2.38581631 545.125713,5.50865841 L545.125713,5.50865841 Z M526.386822,115.752592 C523.436175,114.798854 520.893624,113.236506 518.759171,111.067401 L518.759171,111.067401 C516.624717,108.898297 514.961454,105.948019 513.768039,102.216566 L513.768039,102.216566 C512.574625,98.4851125 511.979931,93.8425986 511.979931,88.2908793 L511.979931,88.2908793 C511.979931,83.0824314 512.668594,77.4861796 514.051291,71.5002683 L514.051291,71.5002683 C515.432645,65.5125015 517.188535,59.5674118 519.324331,53.66871 L519.324331,53.66871 C521.458784,47.7681527 523.812053,42.2145779 526.386822,37.0079856 L526.386822,37.0079856 C528.960248,31.8013932 531.441047,27.3759752 533.825191,23.7317317 L533.825191,23.7317317 C538.220286,16.790227 543.054354,11.5409577 548.327394,7.98206811 L548.327394,7.98206811 C553.601776,4.42503406 559.564822,2.64558927 566.217874,2.64558927 L566.217874,2.64558927 C569.859869,2.64558927 573.186395,3.2096677 576.200136,4.33968008 L576.200136,4.33968008 C579.213877,5.46598142 581.787303,7.2008937 583.921756,9.54441692 L583.921756,9.54441692 C586.05621,11.8879401 587.751691,14.9254283 589.006857,18.6550258 L589.006857,18.6550258 C590.262023,22.3864788 590.888935,26.9417833 590.888935,32.3227946 L590.888935,32.3227946 C590.888935,41.695032 589.414954,51.3678638 586.465649,61.3468566 L586.465649,61.3468566 C583.51366,71.3258493 579.526661,80.4364582 574.504655,88.6805387 L574.504655,88.6805387 C569.482648,96.9246192 563.676666,103.736237 557.084023,109.115393 L557.084023,109.115393 C550.492723,114.494549 543.493326,117.185055 536.085832,117.185055 L536.085832,117.185055 C532.568683,117.185055 529.337469,116.708186 526.386822,115.752592 L526.386822,115.752592 Z M17.9868254,2.38581631 C17.8592951,3.42676367 17.7975436,4.12258411 17.7975436,4.46771104 L17.7975436,4.46771104 C17.7975436,7.24542621 18.9278643,8.63335604 21.1871633,8.63335604 L21.1871633,8.63335604 C25.2050373,8.46079257 29.1598173,7.85218163 33.0528459,6.81123426 L33.0528459,6.81123426 C36.944532,5.77028689 40.8993121,5.24888545 44.917186,5.24888545 L44.917186,5.24888545 C45.1682192,5.24888545 45.4823464,5.33609494 45.8595674,5.50865841 L45.8595674,5.50865841 C46.235446,5.6830774 46.4233854,6.03005986 46.4233854,6.5514613 L46.4233854,6.5514613 C45.5454403,9.15290196 44.1009925,13.1033065 42.0927267,18.3952528 L42.0927267,18.3952528 C40.0844609,23.6890547 37.7607256,29.5450795 35.1242056,35.9670382 L35.1242056,35.9670382 C32.4876855,42.3871414 29.7571959,49.1134056 26.9313941,56.1421197 L26.9313941,56.1421197 C24.1055923,63.1689783 21.4073208,69.7635005 18.8338947,75.9256863 L18.8338947,75.9256863 C16.2604686,82.0860165 13.9998272,87.4651723 12.0533129,92.0650093 L12.0533129,92.0650093 C10.1067986,96.6629907 8.75766285,99.8303653 8.00456318,101.565278 L8.00456318,101.565278 C7.25146352,103.474609 6.18423673,105.860809 4.8028828,108.725734 L4.8028828,108.725734 C3.42152888,111.586947 1.91532955,114.234776 0.282942404,116.663653 L0.282942404,116.663653 L1.41326311,117.964374 C3.17049565,116.056898 4.99216453,114.494549 6.8755849,113.279183 L6.8755849,113.279183 C8.75766285,112.065672 10.2007683,111.457061 11.2062436,111.457061 L11.2062436,111.457061 C12.0841886,111.457061 13.1514154,111.891253 14.4065815,112.759637 L14.4065815,112.759637 C18.1734223,115.535496 22.0033569,117.314941 25.895043,118.096116 L25.895043,118.096116 C29.7880716,118.87729 33.867697,119.268805 38.1379466,119.268805 L38.1379466,119.268805 C43.4109867,119.268805 48.5900571,118.617517 53.6738154,117.314941 L53.6738154,117.314941 C58.7589162,116.012365 63.6869534,113.887794 68.457927,110.935659 L68.457927,110.935659 C73.2289006,107.987236 77.7810592,103.908801 82.1117178,98.7022085 L82.1117178,98.7022085 C86.4450613,93.4974716 90.2414354,87.6395913 93.5062097,81.1304231 L93.5062097,81.1304231 C96.770984,74.6231104 99.3766283,67.6834613 101.3218,60.3059092 L101.3218,60.3059092 C103.268314,52.9302126 104.241572,45.597193 104.241572,38.3087059 L104.241572,38.3087059 C104.241572,30.5006729 103.017281,24.2104561 100.570043,19.4380557 L100.570043,19.4380557 C98.1201197,14.6637998 94.9815333,10.9768793 91.1529411,8.37358308 L91.1529411,8.37358308 C87.3230064,5.77028689 82.9910053,4.03537461 78.1582802,3.16699071 L78.1582802,3.16699071 C73.3242127,2.30046233 68.457927,1.86627038 63.562108,1.86627038 L63.562108,1.86627038 C60.4221791,1.86627038 57.3466865,1.95162436 54.3342879,2.12418782 L54.3342879,2.12418782 C51.3205468,2.30046233 48.2450542,2.47117028 45.1051253,2.64558927 L45.1051253,2.64558927 C42.4699477,2.99257172 39.3300188,3.29687719 35.6893659,3.55665015 L35.6893659,3.55665015 C32.048713,3.81827864 29.0967234,3.94816512 26.836082,3.94816512 L26.836082,3.94816512 C25.0801919,3.94816512 23.3538351,3.42676367 21.658354,2.38581631 L21.658354,2.38581631 C19.962873,1.34486894 18.9909583,0.823467492 18.739925,0.823467492 L18.739925,0.823467492 C18.362704,0.823467492 18.1116708,1.34486894 17.9868254,2.38581631 L17.9868254,2.38581631 Z M26.7434548,114.843387 C23.039708,113.279183 20.1199365,110.935659 17.9868254,107.812817 L17.9868254,107.812817 C17.2323833,106.77187 16.8565047,105.730923 16.8565047,104.689975 L16.8565047,104.689975 C16.8565047,103.99601 17.1075379,102.953207 17.6096043,101.565278 L17.6096043,101.565278 C19.8689033,95.1451744 22.5685173,87.8993643 25.7084462,79.8297028 L25.7084462,79.8297028 C28.8456902,71.7600413 32.1413402,63.4732838 35.5953963,54.9694303 L35.5953963,54.9694303 C39.0481099,46.4655769 42.5316992,38.1361424 46.0461643,29.9792714 L46.0461643,29.9792714 C49.5619718,21.8242559 52.88984,14.3613498 56.0284265,7.59240867 L56.0284265,7.59240867 C56.7828686,5.85749639 57.6299379,4.90190299 58.5723193,4.727484 L58.5723193,4.727484 C59.5133583,4.55677606 60.6745547,4.46771104 62.0545662,4.46771104 L62.0545662,4.46771104 C68.5841148,4.46771104 73.9202488,5.42330444 78.0629681,7.33078019 L78.0629681,7.33078019 C82.2070299,9.24196698 85.50268,11.7561981 87.9512607,14.8808958 L87.9512607,14.8808958 C90.398499,18.0055934 92.09398,21.475418 93.0363614,25.2940805 L93.0363614,25.2940805 C93.9774004,29.1108875 94.4485911,32.9295501 94.4485911,36.7482126 L94.4485911,36.7482126 C94.4485911,48.0260702 92.9423918,58.5691414 89.9273083,68.3755707 L89.9273083,68.3755707 C86.9149096,78.182 82.8339418,86.6858535 77.6870895,93.8852755 L77.6870895,93.8852755 C72.5402373,101.088409 66.575849,106.77187 59.7952672,110.935659 L59.7952672,110.935659 C53.0160279,115.101304 45.7964735,117.185055 38.1379466,117.185055 L38.1379466,117.185055 C34.2449181,117.185055 30.4472016,116.40388 26.7434548,114.843387 L26.7434548,114.843387 Z M487.401497,3.03710423 C482.316396,3.47129618 477.137326,3.86095562 471.864286,4.20793808 L471.864286,4.20793808 C471.362219,4.90190299 470.98634,5.94285036 470.733965,7.33078019 L470.733965,7.33078019 L471.299125,7.59240867 C472.931512,7.07100722 474.688745,6.72402477 476.572165,6.5514613 L476.572165,6.5514613 C478.455586,6.37704231 480.151067,6.29168834 481.657266,6.29168834 L481.657266,6.29168834 C485.048228,6.29168834 486.742367,7.24542621 486.742367,9.15290196 L486.742367,9.15290196 C486.742367,10.0212859 486.617521,10.9768793 486.366488,12.0178266 L486.366488,12.0178266 C485.612046,15.4876512 484.201159,20.0002786 482.128457,25.5538535 L482.128457,25.5538535 C480.057097,31.1074283 477.639392,37.1397276 474.876684,43.6470402 L474.876684,43.6470402 C472.115319,50.1543529 469.164672,56.8787616 466.026085,63.8202663 L466.026085,63.8202663 C462.887499,70.7617709 459.842882,77.3562931 456.892235,83.6038328 L456.892235,83.6038328 C453.941587,89.8532281 451.17888,95.4921569 448.605454,100.526186 L448.605454,100.526186 C446.032027,105.556504 443.991543,109.375166 442.485344,111.978462 L442.485344,111.978462 C441.85709,113.021265 441.071772,113.973148 440.129391,114.843387 L440.129391,114.843387 C439.188352,115.709915 438.216437,116.229461 437.212304,116.40388 L437.212304,116.40388 C437.212304,117.097845 437.337149,117.530182 437.588183,117.706456 L437.588183,117.706456 C438.843349,117.87902 440.287797,117.921697 441.920184,117.834487 L441.920184,117.834487 C443.551229,117.747278 445.05877,117.530182 446.438782,117.185055 L446.438782,117.185055 C447.570445,116.838072 448.762517,116.144107 450.017683,115.101304 L450.017683,115.101304 C451.274192,114.060357 452.404512,112.587073 453.408645,110.677742 L453.408645,110.677742 C457.049298,103.040417 460.847015,94.798192 464.801795,85.947356 L464.801795,85.947356 C468.757917,77.0965201 472.618728,68.2011517 476.384226,59.2649618 L476.384226,59.2649618 C480.151067,50.3269164 483.69775,41.695032 487.024276,33.363742 L487.024276,33.363742 C490.352144,25.032452 493.333667,17.484192 495.971529,10.7171063 L495.971529,10.7171063 C496.599784,9.15290196 497.226695,7.76497214 497.85495,6.5514613 L497.85495,6.5514613 C498.481861,5.33609494 499.298055,4.55677606 500.302188,4.20793808 L500.302188,4.20793808 C501.05663,3.86095562 501.432509,3.51397317 501.432509,3.16699071 L501.432509,3.16699071 C501.432509,2.30046233 501.118381,1.6046419 500.49147,1.08509598 L500.49147,1.08509598 C496.849474,1.95162436 492.486597,2.60291228 487.401497,3.03710423 L487.401497,3.03710423 Z M395.590459,5.37877193 C390.065043,8.24369659 385.044379,12.1050361 380.523096,16.964646 L380.523096,16.964646 C376.882443,20.781453 373.272666,25.466644 369.693765,31.0220743 L369.693765,31.0220743 C366.116206,36.5737936 362.88365,42.5615604 359.994754,48.9816636 L359.994754,48.9816636 C357.108543,55.4036223 354.753932,62.085354 352.933606,69.0268586 L352.933606,69.0268586 C351.111937,75.9683633 350.203116,82.7354489 350.203116,89.3318266 L350.203116,89.3318266 C350.203116,95.2323839 350.954873,100.134671 352.463757,104.038687 L352.463757,104.038687 C353.968614,107.944559 356.009098,111.067401 358.582524,113.409069 L358.582524,113.409069 C361.157293,115.752592 364.10794,117.400295 367.434466,118.355889 L367.434466,118.355889 C370.762334,119.309626 374.247266,119.786495 377.886576,119.786495 L377.886576,119.786495 C389.187098,119.786495 399.576115,116.361203 409.056311,109.505053 L409.056311,109.505053 C418.535164,102.650757 426.162815,93.2358431 431.937922,81.2603096 L431.937922,81.2603096 C432.3138,80.3919257 432.660146,79.4827203 432.974273,78.5271269 L432.974273,78.5271269 C433.2884,77.5733891 433.445463,76.4025552 433.445463,75.0127699 L433.445463,75.0127699 C433.445463,72.5838927 433.19443,71.3703818 432.691021,71.3703818 L432.691021,71.3703818 C432.439988,71.3703818 432.127203,71.7173643 431.749982,72.4094737 L431.749982,72.4094737 C423.965268,87.1627224 415.74158,98.397903 407.078921,106.122438 L407.078921,106.122438 C398.414918,113.843261 388.809877,117.706456 378.263797,117.706456 L378.263797,117.706456 C375.752123,117.706456 373.304884,117.400295 370.919397,116.795395 L370.919397,116.795395 C368.533911,116.186784 366.430333,115.101304 364.610006,113.540811 L364.610006,113.540811 C362.78968,111.978462 361.314356,109.809358 360.185378,107.033498 L360.185378,107.033498 C359.053715,104.255783 358.489897,100.698749 358.489897,96.3605408 L358.489897,96.3605408 C358.489897,88.3762332 359.649751,80.1766852 361.973486,71.7600413 L361.973486,71.7600413 C364.295879,63.3415418 367.215651,55.3590898 370.730116,47.8108297 L370.730116,47.8108297 C374.247266,40.2607141 377.980546,33.449096 381.936668,27.3759752 L381.936668,27.3759752 C385.891448,21.3028545 389.438132,16.7030175 392.576718,13.5783199 L392.576718,13.5783199 C395.339426,10.8043158 398.290073,8.41626006 401.42866,6.42157482 L401.42866,6.42157482 C404.567246,4.42503406 407.956866,3.42676367 411.597519,3.42676367 L411.597519,3.42676367 C416.118801,3.42676367 419.791672,4.12258411 422.616132,5.50865841 L422.616132,5.50865841 C425.440591,6.89844376 427.69989,8.72056553 429.395371,10.9768793 L429.395371,10.9768793 C431.090852,13.2313375 432.253391,15.7492797 432.880303,18.5251393 L432.880303,18.5251393 C433.508557,21.3028545 433.822684,23.9933602 433.822684,26.5948008 L433.822684,26.5948008 C433.822684,27.9845862 433.72603,29.589612 433.539433,31.4117337 L433.539433,31.4117337 C433.351494,33.232 433.131336,34.5791084 432.880303,35.4456367 L432.880303,35.4456367 L434.574442,34.6663179 C435.453729,31.1946378 436.58405,27.2460888 437.965404,22.8206708 L437.965404,22.8206708 C439.345415,18.3952528 440.475736,15.1425243 441.355023,13.058774 L441.355023,13.058774 C441.355023,11.6708442 440.852957,10.6298968 439.848824,9.93407637 L439.848824,9.93407637 C435.829608,6.63681527 431.466731,4.33968008 426.758851,3.03710423 L426.758851,3.03710423 C422.050971,1.73452838 417.437061,1.08509598 412.917121,1.08509598 L412.917121,1.08509598 C406.889639,1.08509598 401.114532,2.51570279 395.590459,5.37877193 L395.590459,5.37877193 Z M336.547983,3.03710423 C331.464224,3.47129618 326.283811,3.86095562 321.010771,4.20793808 L321.010771,4.20793808 C320.508705,4.90190299 320.132826,5.94285036 319.880451,7.33078019 L319.880451,7.33078019 L320.445611,7.59240867 C322.077998,7.07100722 323.835231,6.72402477 325.718651,6.5514613 L325.718651,6.5514613 C327.602071,6.37704231 329.297552,6.29168834 330.803752,6.29168834 L330.803752,6.29168834 C334.194714,6.29168834 335.888853,7.24542621 335.888853,9.15290196 L335.888853,9.15290196 C335.888853,10.0212859 335.764007,10.9768793 335.512974,12.0178266 L335.512974,12.0178266 C334.759874,15.4876512 333.347645,20.0002786 331.274942,25.5538535 L331.274942,25.5538535 C329.203583,31.1074283 326.78722,37.1397276 324.024512,43.6470402 L324.024512,43.6470402 C321.261805,50.1543529 318.311157,56.8787616 315.172571,63.8202663 L315.172571,63.8202663 C312.033984,70.7617709 308.989368,77.3562931 306.03872,83.6038328 L306.03872,83.6038328 C303.088073,89.8532281 300.325365,95.4921569 297.751939,100.526186 L297.751939,100.526186 C295.178513,105.556504 293.138029,109.375166 291.63183,111.978462 L291.63183,111.978462 C291.003576,113.021265 290.218258,113.973148 289.275876,114.843387 L289.275876,114.843387 C288.334837,115.709915 287.362923,116.229461 286.357447,116.40388 L286.357447,116.40388 C286.357447,117.097845 286.483635,117.530182 286.734669,117.706456 L286.734669,117.706456 C287.989835,117.87902 289.434282,117.921697 291.06667,117.834487 L291.06667,117.834487 C292.697714,117.747278 294.205256,117.530182 295.585268,117.185055 L295.585268,117.185055 C296.716931,116.838072 297.909003,116.144107 299.165511,115.101304 L299.165511,115.101304 C300.419335,114.060357 301.550998,112.587073 302.553789,110.677742 L302.553789,110.677742 C306.195784,103.040417 309.993501,94.798192 313.948281,85.947356 L313.948281,85.947356 C317.904403,77.0965201 321.763871,68.2011517 325.530712,59.2649618 L325.530712,59.2649618 C329.297552,50.3269164 332.844236,41.695032 336.172104,33.363742 L336.172104,33.363742 C339.499972,25.032452 342.481495,17.484192 345.118015,10.7171063 L345.118015,10.7171063 C345.746269,9.15290196 346.373181,7.76497214 347.001435,6.5514613 L347.001435,6.5514613 C347.628347,5.33609494 348.444541,4.55677606 349.448674,4.20793808 L349.448674,4.20793808 C350.203116,3.86095562 350.578994,3.51397317 350.578994,3.16699071 L350.578994,3.16699071 C350.578994,2.30046233 350.264867,1.6046419 349.636613,1.08509598 L349.636613,1.08509598 C345.99596,1.95162436 341.633083,2.60291228 336.547983,3.03710423 L336.547983,3.03710423 Z M190.121782,2.12418782 C185.852874,2.30046233 181.614843,2.47117028 177.40903,2.64558927 L177.40903,2.64558927 C173.203216,2.82186378 169.404157,2.99257172 166.014538,3.16699071 L166.014538,3.16699071 C162.623576,3.33955418 160.239431,3.42676367 158.856735,3.42676367 L158.856735,3.42676367 C154.965049,3.42676367 150.854548,3.33955418 146.521204,3.16699071 L146.521204,3.16699071 C142.190545,2.99257172 138.078702,2.73465428 134.185673,2.38581631 L134.185673,2.38581631 C133.432574,3.42676367 132.930507,5.42330444 132.679474,8.37358308 L132.679474,8.37358308 L133.056695,8.63335604 C135.944248,7.59240867 139.270774,6.89844376 143.038957,6.5514613 L143.038957,6.5514613 C146.804455,6.20447884 150.571296,6.03005986 154.338137,6.03005986 L154.338137,6.03005986 C155.091237,6.03005986 155.468458,6.37704231 155.468458,7.07100722 L155.468458,7.07100722 C155.468458,7.76497214 154.744891,10.0658184 153.301786,13.9698349 L153.301786,13.9698349 C151.857338,17.8738514 150.226293,22.2139154 148.404624,26.9863158 L148.404624,26.9863158 C146.584298,31.7587162 144.827065,36.2268111 143.131584,40.3924561 L143.131584,40.3924561 C141.437446,44.5562456 140.339343,47.2467513 139.835934,48.4602621 L139.835934,48.4602621 C138.45458,52.1045057 136.320127,54.1901115 133.432574,54.7096574 L133.432574,54.7096574 C131.926374,55.0566398 131.173275,55.8378142 131.173275,57.0513251 L131.173275,57.0513251 C131.173275,57.5727265 131.487402,57.8324995 132.114314,57.8324995 L132.114314,57.8324995 C133.495668,57.8324995 134.374955,57.919709 134.750834,58.094128 L134.750834,58.094128 C135.128055,58.2666914 135.317336,58.6136739 135.317336,59.1332198 L135.317336,59.1332198 C135.317336,59.3094943 134.562894,61.2596471 133.056695,64.9929556 L133.056695,64.9929556 C131.549153,68.7225531 129.855015,72.8881981 127.971594,77.4861796 L127.971594,77.4861796 C126.086831,82.0860165 124.267847,86.4687575 122.510615,90.632547 L122.510615,90.632547 C120.75204,94.798192 119.623062,97.4886976 119.119653,98.7022085 L119.119653,98.7022085 C117.738299,102.172033 117.048293,105.47115 117.048293,108.593992 L117.048293,108.593992 C117.048293,110.33076 117.36242,111.848576 117.989332,113.149296 L117.989332,113.149296 C118.617586,114.451872 119.780125,115.578173 121.474264,116.533767 L121.474264,116.533767 C123.169745,117.487505 125.523014,118.183325 128.536755,118.617517 L128.536755,118.617517 C131.549153,119.051709 135.440839,119.268805 140.211813,119.268805 L140.211813,119.268805 C143.476587,119.268805 146.929301,119.094386 150.571296,118.747404 L150.571296,118.747404 C154.211949,118.400421 157.915696,117.87902 161.682537,117.185055 L161.682537,117.185055 C165.449377,116.49109 169.153124,115.752592 172.79512,114.973273 L172.79512,114.973273 C176.43443,114.192099 179.825392,113.279183 182.963979,112.238235 L182.963979,112.238235 C185.601841,111.369851 187.357731,109.809358 188.237019,107.553044 L188.237019,107.553044 C188.739085,106.512097 189.335121,105.339408 190.026469,104.038687 L190.026469,104.038687 C190.716475,102.736111 191.438699,101.652487 192.191799,100.784103 L192.191799,100.784103 C192.191799,99.7450114 191.942108,99.3961734 191.438699,99.7450114 L191.438699,99.7450114 C188.928367,102.348308 185.506529,104.689975 181.17587,106.77187 L181.17587,106.77187 C176.842527,108.85562 172.291711,110.635065 167.520737,112.108349 L167.520737,112.108349 C162.749763,113.583488 158.07276,114.668968 153.489725,115.362933 L153.489725,115.362933 C148.908033,116.056898 145.047223,116.40388 141.907294,116.40388 L141.907294,116.40388 C132.993601,116.40388 128.536755,112.325445 128.536755,104.170429 L128.536755,104.170429 C128.536755,101.045732 129.165009,97.4886976 130.418833,93.4974716 L130.418833,93.4974716 C132.052562,88.1164603 133.966858,82.5628854 136.164406,76.8348916 L136.164406,76.8348916 C138.361953,71.1087534 140.52594,65.642388 142.661736,60.4357957 L142.661736,60.4357957 C143.038957,59.3948483 143.727621,58.8753024 144.733096,58.8753024 L144.733096,58.8753024 C147.118583,58.7008834 149.630257,58.6136739 152.266777,58.6136739 L152.266777,58.6136739 L160.741498,58.6136739 C164.633184,58.6136739 168.495337,58.6563509 172.323929,58.7454159 L172.323929,58.7454159 C176.153864,58.8326254 179.699204,58.9625119 182.963979,59.1332198 L182.963979,59.1332198 C183.843266,59.1332198 184.345333,58.7880929 184.470178,58.094128 L184.470178,58.094128 C184.721211,57.2257441 185.035338,56.2720062 185.412559,55.2292033 L185.412559,55.2292033 L186.353598,52.6259071 L185.788438,51.8465882 C181.394685,53.2345181 177.031809,54.1455789 172.699808,54.5797709 L172.699808,54.5797709 C168.369149,55.0121073 163.314924,55.2292033 157.538475,55.2292033 L157.538475,55.2292033 L152.077496,55.2292033 C150.320263,55.2292033 148.561688,55.1419938 146.804455,54.9694303 L146.804455,54.9694303 C145.549289,54.9694303 145.172068,54.1901115 145.674135,52.6259071 L145.674135,52.6259071 C148.687876,45.1648566 151.920432,37.48671 155.373146,29.589612 L155.373146,29.589612 C158.827202,21.6925139 162.247697,14.6211228 165.637317,8.37358308 L165.637317,8.37358308 C166.64145,6.63681527 168.148991,5.77028689 170.1586,5.77028689 L170.1586,5.77028689 C174.677198,5.77028689 179.19848,5.94285036 183.717078,6.29168834 L183.717078,6.29168834 C188.237019,6.63867079 192.442832,7.24542621 196.335861,8.11381011 L196.335861,8.11381011 C196.711739,8.28637358 197.056742,8.80777503 197.370869,9.67430341 L197.370869,9.67430341 C197.684996,10.5426873 197.84206,11.4964252 197.84206,12.5392281 L197.84206,12.5392281 L198.596502,12.799001 C199.223414,10.8878142 199.914762,9.02301548 200.667862,7.2008937 L200.667862,7.2008937 C201.419619,5.37877193 201.923028,4.03537461 202.174061,3.16699071 L202.174061,3.16699071 C202.174061,2.30046233 201.79684,1.86627038 201.04374,1.86627038 L201.04374,1.86627038 C198.031342,1.86627038 194.389346,1.95162436 190.121782,2.12418782 L190.121782,2.12418782 Z M770.464946,3.68839216 C768.016365,4.727484 765.880569,5.94285036 764.061585,7.33078019 L764.061585,7.33078019 C762.239916,8.72056553 760.671965,10.2383818 759.352363,11.8879401 L759.352363,11.8879401 C758.034103,13.5356429 756.999094,14.9681053 756.244652,16.1816161 L756.244652,16.1816161 C754.111541,19.6532962 752.32209,23.6463777 750.877642,28.1571496 L750.877642,28.1571496 C749.433194,32.6679216 748.71097,37.1824045 748.71097,41.695032 L748.71097,41.695032 C748.71097,46.2058039 749.3701,50.1970299 750.689703,53.66871 L750.689703,53.66871 C752.007963,57.1385346 753.922259,61.1316161 756.432591,65.642388 L756.432591,65.642388 C759.320145,70.6745614 761.266659,74.7103199 762.270792,77.747808 L762.270792,77.747808 C763.276267,80.7834407 763.778333,83.7782518 763.778333,86.7285304 L763.778333,86.7285304 C763.778333,92.8016512 762.427855,98.0509205 759.729584,102.476338 L759.729584,102.476338 C757.02997,106.901756 753.73432,110.33076 749.841291,112.759637 L749.841291,112.759637 C747.959213,113.973148 745.855635,114.886064 743.5319,115.492819 L743.5319,115.492819 C741.209507,116.099575 738.91799,116.40388 736.657349,116.40388 L736.657349,116.40388 C730.631209,116.40388 726.174362,114.539082 723.286809,110.807628 L723.286809,110.807628 C720.399256,107.076175 718.954808,102.780644 718.954808,97.9210341 L718.954808,97.9210341 C718.954808,96.3586852 719.14409,94.798192 719.519968,93.2358431 L719.519968,93.2358431 C719.519968,92.3674592 719.332029,91.9332673 718.954808,91.9332673 L718.954808,91.9332673 C718.578929,91.9332673 718.389648,92.1076863 718.389648,92.4546687 L718.389648,92.4546687 C717.888924,94.8854014 717.291545,97.963711 716.600197,101.69702 L716.600197,101.69702 C715.910191,105.426617 715.314155,108.768411 714.810746,111.718689 L714.810746,111.718689 C714.938277,112.238235 715.251061,112.71696 715.753128,113.149296 L715.753128,113.149296 C716.256537,113.583488 716.821697,114.060357 717.448609,114.581759 L717.448609,114.581759 C719.835438,116.144107 722.43974,117.272264 725.262857,117.964374 L725.262857,117.964374 C728.088659,118.660194 730.945336,119.007176 733.832889,119.007176 L733.832889,119.007176 C740.738316,119.007176 747.016832,117.272264 752.667093,113.800584 L752.667093,113.800584 C754.926392,112.412654 757.216567,110.547856 759.540302,108.204332 L759.540302,108.204332 C761.862695,105.860809 763.997148,103.214836 765.943663,100.264557 L765.943663,100.264557 C767.890177,97.3142786 769.45947,94.1023715 770.651542,90.632547 L770.651542,90.632547 C771.844957,87.1627224 772.440993,83.6038328 772.440993,79.9595893 L772.440993,79.9595893 C772.440993,77.8776945 772.316148,76.1001053 772.065115,74.6231104 L772.065115,74.6231104 C771.812739,73.1479711 771.375109,71.5856223 770.746855,69.9379195 L770.746855,69.9379195 C770.119943,68.2883612 769.271531,66.4662394 768.202962,64.4715542 L768.202962,64.4715542 C767.137077,62.4750134 765.786599,60.0016037 764.154212,57.0513251 L764.154212,57.0513251 C762.021101,53.2345181 760.074587,49.0688731 758.317354,44.5562456 L758.317354,44.5562456 C756.558779,40.0454737 755.680834,35.1858638 755.680834,29.9792714 L755.680834,29.9792714 C755.680834,23.2121858 757.250127,17.7866419 760.388714,13.7082064 L760.388714,13.7082064 C763.525958,9.63162642 767.606926,7.59240867 772.630275,7.59240867 L772.630275,7.59240867 C777.401249,7.59240867 780.884838,8.98033849 783.082385,11.7561981 L783.082385,11.7561981 C785.279933,14.5339133 786.378035,17.484192 786.378035,20.6070341 L786.378035,20.6070341 C786.378035,22.1712384 786.190096,23.4719587 785.814217,24.5129061 L785.814217,24.5129061 C786.190096,25.38129 786.627726,25.641063 787.131135,25.2940805 L787.131135,25.2940805 C787.508356,23.3847492 788.041298,21.041226 788.731304,18.2653664 L788.731304,18.2653664 C789.422652,15.4876512 790.018688,13.2313375 790.522097,11.4964252 L790.522097,11.4964252 C790.522097,10.2829143 790.206628,9.06754799 789.579716,7.85218163 L789.579716,7.85218163 C788.073516,5.59586791 786.378035,4.0780516 784.495957,3.29687719 L784.495957,3.29687719 C782.612537,2.51570279 780.666023,2.12418782 778.656415,2.12418782 L778.656415,2.12418782 C775.642674,2.12418782 772.912184,2.64558927 770.464946,3.68839216 L770.464946,3.68839216 Z" id="path-3"></path>
        <path d="M2.31440833,19.6681365 L2.25034167,19.920611 C1.40412778,23.2233518 0.9489875,26.7523846 0.943648611,30.3973686 L0.943648611,30.3973686 C0.940979167,32.5125441 1.08779861,34.6651232 1.40012361,36.8326637 L1.40012361,36.8326637 C2.86030972,46.976529 7.57321389,55.3137988 13.79035,60.1781413 L13.79035,60.1781413 C14.7980653,60.967358 15.7790861,61.5976092 16.7240694,62.0819863 L16.7240694,62.0819863 L16.7601069,62.0988179 C18.4124931,62.9385295 19.9607708,63.3331378 21.3782458,63.3387483 L21.3782458,63.3387483 C12.5330417,54.0514262 7.40103472,39.8399158 7.39302639,25.2337971 L7.39302639,25.2337971 C7.39169167,23.1466743 7.49446528,21.0539411 7.70668611,18.9649482 L7.70668611,18.9649482 C7.72670694,18.7648387 7.85884444,18.6264453 8.00966806,18.6488875 L8.00966806,18.6488875 C8.15915694,18.6713296 8.27260833,18.8452565 8.27260833,19.045366 L8.27260833,19.045366 C8.27260833,19.0509765 8.27260833,19.0565871 8.27260833,19.0640678 L8.27260833,19.0640678 C8.23390139,20.0103797 8.21388056,20.9510811 8.21521528,21.8899123 L8.21521528,21.8899123 C8.23657083,40.9732459 16.6146222,58.5361218 29.4025958,66.9351077 L29.4025958,66.9351077 L30.8120625,63.3873731 C29.4986958,62.6037669 28.2213667,61.7210412 26.9827444,60.741066 L26.9827444,60.741066 C29.0075181,58.4388724 30.1767347,54.7714462 30.1834083,50.3989615 L30.1834083,50.3989615 C30.1927514,45.596335 28.7979667,39.9427758 25.5959681,34.3191396 L25.5959681,34.3191396 C20.7696125,25.8359956 14.6018611,19.2884896 14.5938528,9.81040895 L14.5938528,9.81040895 C14.5911833,7.0013961 15.1290764,3.93803855 16.4024014,0.489423571 L16.4024014,0.489423571 C9.68874861,3.79216438 4.62080833,10.9063354 2.31440833,19.6681365 L2.31440833,19.6681365 Z" id="path-5"></path>
    </defs>
    <g id="Page-1" stroke="none" stroke-width="1" fill="none" fill-rule="evenodd">
        <g id="Artboard">
            <g id="Group-3" transform="translate(10.000000, 40.000000)">
                <mask id="mask-2" fill="white">
                    <use xlink:href="#path-1"></use>
                </mask>
                <g id="Clip-2"></g>
                <polygon id="Fill-1" fill="#090707" mask="url(#mask-2)" points="-32.1309544 -140 279 -23.9293321 161.131813 308 -150 191.929332"></polygon>
            </g>
            <g id="Group-7" transform="translate(147.000000, 23.000000)">
                <g id="Group-3" transform="translate(0.000000, 69.000000)">
                    <mask id="mask-4" fill="white">
                        <use xlink:href="#path-3"></use>
                    </mask>
                    <g id="Clip-2"></g>
                    <polygon id="Fill-1" fill="#060101" mask="url(#mask-4)" points="-26.985709 161.125651 817.790749 161.125651 817.790749 -37.6470526 -26.985709 -37.6470526"></polygon>
                </g>
                <g id="Group-6" transform="translate(468.000000, 0.000000)">
                    <mask id="mask-6" fill="white">
                        <use xlink:href="#path-5"></use>
                    </mask>
                    <g id="Clip-5"></g>
                    <polygon id="Fill-4" fill="#090707" mask="url(#mask-6)" points="-7.84282778 -52.3015032 78.3041486 -8.3671957 45.6688556 117.269738 -40.4781208 73.3373005"></polygon>
                </g>
            </g>
        </g>
    </g>
</svg>